PathFileType	4	(X/Y/Z)	C:\Users\WrightLab\Desktop\Jo\P2_Trial37.trc
DataRate	CameraRate	NumFrames	NumMarkers	Units	OrigDataRate	OrigDataStartFrame	OrigNumFrames
100.00	100.00	       41	19	mm	100.00	71	       563
Frame#	Time	Headset_Front			Headset_Back			Headset_Left			Headset_Right			Left_Shoulder			Right_Shoulder			Sternum			C7			Left Elbow			Right Elbow			Left Wrist			Right Wrist			Left ASIS			Right ASIS			S2			Left Knee			Right Knee			Left Ankle			Right Ankle			
		X1	Y1	Z1	X2	Y2	Z2	X3	Y3	Z3	X4	Y4	Z4	X5	Y5	Z5	X6	Y6	Z6	X7	Y7	Z7	X8	Y8	Z8	X9	Y9	Z9	X10	Y10	Z10	X11	Y11	Z11	X12	Y12	Z12	X13	Y13	Z13	X14	Y14	Z14	X15	Y15	Z15	X16	Y16	Z16	X17	Y17	Z17	X18	Y18	Z18	X19	Y19	Z19	

71	0.700																									-188.29388	1059.47913	-1407.54993							-751.11993	829.56378	-1448.15564	-400.91412	1001.05225	-1329.89514	-535.72382	984.33893	-1337.31189				-275.16452	417.40756	-1304.47229										
72	0.710																									-189.49094	1059.32495	-1408.02625							-753.16498	828.35309	-1443.99487	-404.67847	1002.07489	-1323.46973	-538.92535	984.22662	-1337.40393				-279.99869	419.12549	-1295.20874										
73	0.720																									-190.89035	1059.42603	-1408.65930							-756.67517	825.11163	-1449.21667	-406.93735	999.84528	-1326.27014	-540.06006	982.71338	-1337.87744				-284.82120	421.43616	-1285.76819										
74	0.730																									-192.09451	1059.66736	-1407.62000							-757.68262	824.43451	-1449.41321	-410.25647	1002.43597	-1318.20862	-542.84790	984.29749	-1329.66248				-290.77640	423.14813	-1275.39648										
75	0.740																									-193.31335	1059.75098	-1407.19714							-759.28809	824.38556	-1448.16614	-411.56671	1002.60077	-1317.77234	-544.81030	984.24005	-1326.83557				-295.40436	424.92474	-1267.73926										
76	0.750																									-195.47592	1060.45593	-1405.54260							-761.04236	826.81689	-1434.59534	-413.75284	1002.00409	-1314.79114	-546.31989	983.33118	-1323.67175				-300.38776	427.03366	-1258.25732										
77	0.760																									-195.73431	1060.29419	-1406.08105							-762.18256	825.73724	-1431.91492	-416.22098	1002.95526	-1311.33276	-549.45886	984.07306	-1322.64294				-304.62119	429.46783	-1252.98364										
78	0.770																									-196.67918	1060.30579	-1404.81323							-763.70880	822.19794	-1439.60425	-416.77542	1002.00092	-1314.14648	-550.18060	982.80469	-1325.91992				-309.90372	431.56348	-1243.50879										
79	0.780																									-197.87494	1060.00269	-1403.42798							-764.83600	821.37878	-1439.25110	-419.55579	1003.85950	-1306.42468	-552.80988	981.83789	-1321.04480				-314.37000	432.16406	-1234.49976										
80	0.790																									-199.01093	1059.77490	-1401.32104							-765.15082	824.57410	-1425.54199	-420.93326	1003.17126	-1305.22693	-554.50549	983.05829	-1313.26685				-317.77295	434.37866	-1229.17078										
81	0.800																									-199.54430	1059.43982	-1399.95337							-766.29913	823.02032	-1420.46985	-422.30927	1002.04932	-1303.45166	-555.21222	982.21973	-1310.85681				-322.67673	436.16187	-1220.87366										
82	0.810																									-199.50774	1059.36731	-1399.66418							-766.55334	822.30212	-1417.50110	-424.87045	1002.58191	-1297.62134	-557.10901	982.10681	-1309.08826				-327.00604	437.97852	-1214.80762										
83	0.820																									-199.26050	1059.44958	-1398.12842							-766.80072	822.45502	-1415.66028	-426.48492	1002.62402	-1294.59460	-558.61401	981.69153	-1298.37390				-331.03882	439.36520	-1209.66809										
84	0.830																									-201.42978	1059.62207	-1392.07654							-767.38629	821.19995	-1411.42834	-427.84906	1003.00531	-1290.30249	-560.17981	981.18127	-1299.62305				-335.79239	441.17075	-1204.57837										
85	0.840																									-201.21870	1059.86609	-1390.34802							-769.66376	820.36652	-1405.78040	-430.18155	1003.75140	-1283.35852	-560.97467	980.86566	-1294.21033				-341.06046	441.53702	-1197.85010										
86	0.850																									-201.14290	1059.48926	-1387.70581							-771.82135	816.99243	-1412.22595	-431.28061	1000.89227	-1282.07361	-563.63165	980.99017	-1293.47424				-344.98065	442.68332	-1193.72095										
87	0.860																									-202.89572	1059.17639	-1381.51843							-770.86145	818.92981	-1397.49548	-432.63452	1001.89276	-1278.84302	-565.12653	980.08142	-1290.83472				-349.06885	443.49921	-1190.50232										
88	0.870																									-203.22556	1058.79272	-1377.75830							-772.60309	817.78491	-1391.71899	-434.78830	1002.58453	-1271.40027	-566.28003	979.74683	-1281.54761				-353.50732	442.59314	-1187.02759										
89	0.880																									-204.15547	1057.87598	-1373.60498							-775.75446	813.96283	-1399.59961	-435.90802	1000.86243	-1266.85059	-568.71869	979.18585	-1280.09985				-358.68939	443.18427	-1183.40173										
90	0.890																									-205.55130	1057.19861	-1368.59778							-775.58978	816.01617	-1380.88074	-437.08920	999.95929	-1264.61755	-569.74945	977.84576	-1272.21057				-364.00412	443.08765	-1180.52795										
91	0.900																									-206.27470	1057.08936	-1363.22217							-777.90985	815.77698	-1375.11829	-439.46051	1000.36127	-1258.33521	-570.97443	976.72821	-1270.22937				-368.14410	443.19131	-1177.59912										
92	0.910																									-206.67297	1056.43396	-1359.82166							-779.29150	815.21796	-1369.95081	-440.55115	998.96399	-1253.73621	-572.80353	975.73639	-1265.28333				-374.62671	441.58743	-1173.40051										
93	0.920																									-208.26624	1055.50562	-1353.12634							-782.17273	814.18933	-1361.93750	-440.61578	998.55096	-1244.64600	-573.44427	974.91742	-1259.89233				-379.69110	440.98682	-1170.48193										
94	0.930																									-209.46693	1054.27002	-1348.80518							-783.78070	814.24170	-1356.75061	-442.68329	996.70502	-1241.39893	-573.67963	974.44598	-1254.35095				-386.07004	441.13562	-1167.08215										
95	0.940																									-210.34360	1054.01160	-1344.05493							-786.87408	813.17767	-1347.96582	-444.39755	996.03625	-1238.17786	-575.52893	972.83405	-1248.03430				-392.56769	439.69101	-1163.06152										
96	0.950																									-211.51711	1053.32141	-1339.48010							-789.31946	813.66888	-1341.64038	-444.08157	996.45892	-1228.25989	-577.20135	971.54596	-1243.93152				-398.29172	439.66397	-1160.56042										
97	0.960																									-211.93016	1052.34729	-1336.46997							-792.00763	812.45746	-1333.07324	-446.09860	994.86298	-1221.73962	-578.15833	969.03693	-1243.00769				-405.50153	439.67389	-1156.25720										
98	0.970																									-213.92336	1051.38806	-1329.50439							-795.19562	812.37634	-1325.07837	-448.05994	993.58350	-1219.20813	-580.31006	969.57422	-1232.16113				-410.58109	440.11084	-1150.29553										
99	0.980																-662.51208	1381.87549	-1341.84460							-215.88628	1050.17493	-1323.60315							-798.80798	811.61694	-1315.45618	-448.90158	991.76837	-1212.22876	-580.84717	967.07489	-1224.19299				-414.65985	440.10037	-1144.79321										
100	0.990																-663.88879	1382.22070	-1338.18921							-216.02161	1049.64478	-1320.65320							-801.47125	810.99756	-1306.61865	-451.04852	991.10382	-1206.24377	-582.94501	966.16650	-1220.27795				-418.45267	439.03754	-1139.83728										
101	1.000				-464.31113	902.80890	-1466.04529										-665.60590	1380.57568	-1329.10266							-217.55228	1048.32361	-1315.57214							-804.97498	811.39471	-1297.88977	-453.34082	989.67755	-1200.87036	-585.92664	965.68573	-1215.70630				-421.42679	438.93478	-1132.87073										
102	1.010				-465.09698	901.68237	-1459.22583										-667.43488	1379.99194	-1322.22656							-218.70792	1046.77686	-1309.80396							-809.06525	810.89587	-1286.88379	-455.59354	988.98621	-1190.93665	-586.76727	963.65582	-1211.82764				-424.09598	436.53516	-1126.60767										
103	1.020				-465.76901	900.79248	-1453.12280										-669.23413	1378.95569	-1314.07959							-219.38071	1045.53052	-1306.16504							-812.43207	811.17950	-1277.64001	-457.69092	987.54626	-1183.85742	-590.29504	963.16901	-1204.15161				-426.52814	436.80521	-1118.71191										
104	1.030				-466.16138	900.09985	-1446.68823										-671.02509	1377.96643	-1305.80042							-220.97438	1044.44104	-1299.30273							-816.30865	810.90942	-1266.46362	-461.54865	985.93665	-1177.72766	-591.92963	961.48608	-1196.65747				-429.15689	435.53891	-1110.63525										
105	1.040				-466.31067	899.25409	-1439.34949										-672.76721	1376.98120	-1297.46960							-222.34410	1043.43530	-1293.70947							-819.61621	811.69751	-1257.47729	-463.85278	984.87848	-1171.31519	-594.71179	959.88599	-1192.79883				-431.60159	434.37936	-1102.06470										
106	1.050				-466.44037	898.63513	-1432.75867										-674.52191	1376.05737	-1288.99487							-223.89754	1042.16272	-1286.98621							-822.59955	811.39911	-1246.24524	-467.13458	984.51648	-1164.91772	-596.22278	959.17542	-1182.23828				-433.04440	434.32596	-1092.81128										
107	1.060				-466.42798	897.71210	-1425.09668										-676.20526	1376.29639	-1283.22974							-225.13860	1041.73779	-1281.95862							-825.70227	812.02441	-1236.12695	-470.76288	983.37299	-1157.24829	-600.64337	956.51843	-1179.57031				-435.15076	433.99097	-1083.75916										
108	1.070				-466.35971	897.05542	-1417.69983										-678.04089	1374.31970	-1271.81262							-226.08975	1039.61462	-1276.43286							-828.89771	811.95184	-1224.36609	-473.89844	982.97504	-1148.08569	-603.65271	955.26178	-1177.14075				-436.32645	433.22330	-1074.52478										
109	1.080				-466.34155	896.10358	-1409.91321										-679.37982	1374.96448	-1267.26721							-228.63794	1038.19031	-1267.84985							-831.93445	813.01685	-1214.27454	-476.36011	981.19037	-1141.02722	-606.42908	953.97980	-1167.56116				-439.16907	432.36749	-1063.18274										
110	1.090				-466.31332	895.50531	-1402.50415										-681.78326	1373.96167	-1257.15625	-518.91394	1266.74475	-1185.33679				-229.61124	1036.78711	-1262.31897							-834.79285	812.88629	-1202.09631	-481.16531	979.47540	-1136.60632	-610.28027	952.54272	-1164.54651				-441.15109	431.98795	-1051.90540										
111	1.100				-466.29810	894.37445	-1393.32996										-683.67120	1373.41138	-1248.68762	-520.55225	1265.20264	-1176.95007				-230.11931	1035.93994	-1257.45740							-837.53601	813.23053	-1190.67383	-486.55893	979.20648	-1127.10486	-612.62622	952.79901	-1153.18274				-443.21481	430.47137	-1042.23181										
